<svg width="24" height="24" viewBox="0 0 24 24" fill="none" xmlns="http://www.w3.org/2000/svg">
<path d="M18.8334 7.83333V6.16667C18.8334 5.2475 18.0859 4.5 17.1667 4.5H6.33337C4.95504 4.5 3.83337 5.62167 3.83337 7V17C3.83337 18.8342 5.32837 19.5 6.33337 19.5H18.8334C19.7525 19.5 20.5 18.7525 20.5 17.8333V9.5C20.5 8.58083 19.7525 7.83333 18.8334 7.83333ZM17.1667 15.3333H15.5V12H17.1667V15.3333ZM6.33337 7.83333C6.11881 7.82374 5.91621 7.73174 5.76777 7.57651C5.61933 7.42129 5.53648 7.21478 5.53648 7C5.53648 6.78522 5.61933 6.57871 5.76777 6.42349C5.91621 6.26826 6.11881 6.17626 6.33337 6.16667H17.1667V7.83333H6.33337Z"/>
</svg>
